<?xml version="1.0" encoding="UTF-8"?>
<svg id="Capa_2" data-name="Capa 2" xmlns="http://www.w3.org/2000/svg" viewBox="0 0 131.58 156.84">
  <g id="Capa_1-2" data-name="Capa 1">
    <g>
      <path d="M0,68.49C0,33.17,24.41,5.1,56.63,.64c36.33-5.03,69.48,20.12,74.31,56.81,2.68,20.32-3.17,38.4-17.25,53.24-14.21,14.98-29.09,29.32-43.71,43.9-3,3-5.33,2.99-8.34,0-14.62-14.59-29.39-29.03-43.74-43.88C5.88,98.28,.44,82.96,0,68.49ZM65.23,9.39c-3.41-.15-7.44,.18-11.34,1.13C32.36,15.77,17.71,28.9,11.61,50.18c-5.79,20.23-1.47,38.88,13.12,54.32,12.57,13.31,25.84,25.97,38.73,38.98,1.7,1.72,2.83,1.91,4.63,.09,12.96-13.1,26.23-25.9,38.97-39.21,12.63-13.19,17.23-29.37,14.57-47.25-4.13-27.8-27.73-47.7-56.4-47.71Z"/>
      <path d="M94.77,65.74c.02,15.86-13.21,29.06-29.07,29-15.73-.06-28.83-13.18-28.85-28.88-.02-15.88,13.23-29.09,29.07-28.99,15.81,.11,28.83,13.13,28.85,28.87Zm-28.89,19.47c10.95-.02,19.88-8.81,19.7-19.41-.18-10.93-8.81-19.51-19.67-19.55-11-.04-19.88,8.76-19.88,19.69,0,10.68,8.87,19.28,19.85,19.27Z"/>
    </g>
  </g>
</svg>