<?xml version="1.0" encoding="UTF-8"?>
<svg id="Capa_2" data-name="Capa 2" xmlns="http://www.w3.org/2000/svg" viewBox="0 0 125.55 156.84">
  <g id="Capa_1-2" data-name="Capa 1">
    <g>
      <path d="M0,78.41c0-17.29-.02-34.58,0-51.88C.04,11.38,11.38,.05,26.57,.03,42.64,0,58.72,.08,74.79,0c7.47-.04,13.74,2.64,18.97,7.82,7.97,7.88,15.89,15.82,23.78,23.78,5.32,5.36,8.03,11.79,8.01,19.44-.06,26.42,0,52.83-.03,79.25-.01,15.18-11.35,26.53-26.52,26.54-24.16,.03-48.31,.03-72.47,0C11.37,156.8,.03,145.46,.01,130.28c-.03-17.29,0-34.58,0-51.88Zm10.81-.17c0,16.68,0,33.36,0,50.04,0,2.53,.19,5.05,1.05,7.44,2.39,6.67,8.03,10.28,16.19,10.29,23.11,.03,46.22,.01,69.33,0,2.35,0,4.7-.22,6.93-1,6.78-2.38,10.4-8.04,10.41-16.37,.02-25.45,0-50.91,0-76.36,0-.78-.04-1.56-.1-2.34-.14-1.83-.89-2.71-2.97-2.66-5.99,.14-11.99,.09-17.98,.03-8.58-.09-15.33-6.85-15.42-15.43-.06-5.56-.01-11.12-.02-16.68,0-4.07-.19-4.35-4.18-4.36-15.55-.03-31.1-.05-46.65,.01-4.96,.02-9.36,1.54-12.75,5.46-3.05,3.53-3.81,7.71-3.81,12.13-.02,16.59,0,33.19,0,49.78ZM106.03,36.43c-5.64-5.62-11.29-11.25-16.87-16.81,0,3.9-.18,8.1,.07,12.29,.15,2.63,2.03,4.33,4.64,4.47,4.11,.22,8.24,.06,12.17,.06Z"/>
      <path d="M48.36,89.04c-2,0-4,.03-5.99-.01-3.74-.07-5.89-2.11-5.84-5.51,.05-3.26,2.17-5.24,5.77-5.28,4.17-.04,8.34-.08,12.51,.02,1.89,.05,2.64-.55,2.59-2.52-.11-4.17-.06-8.34-.02-12.51,.04-3.74,2.08-5.88,5.47-5.84,3.25,.03,5.26,2.17,5.31,5.77,.05,4.17,.09,8.34-.01,12.51-.05,1.89,.54,2.65,2.52,2.59,4.17-.11,8.34-.06,12.51-.02,3.68,.03,5.86,2.12,5.84,5.5-.02,3.22-2.18,5.25-5.77,5.29-4.17,.04-8.34,.08-12.51-.02-1.89-.05-2.64,.55-2.59,2.52,.11,4.17,.06,8.34,.02,12.51-.03,3.6-2.02,5.79-5.22,5.84-3.39,.05-5.53-2.13-5.57-5.78-.04-4.26-.06-8.51,0-12.77,.03-1.66-.53-2.38-2.25-2.31-2.25,.09-4.52,.02-6.77,.02Z"/>
    </g>
  </g>
</svg>