<?xml version="1.0" encoding="UTF-8"?>
<svg id="Capa_2" data-name="Capa 2" xmlns="http://www.w3.org/2000/svg" viewBox="0 0 156.84 157.11">
  <defs>
    <style>
      .cls-1 {
        fill: #fff;
      }
    </style>
  </defs>
  <g id="Capa_1-2" data-name="Capa 1">
    <g>
      <path class="cls-1" d="M104.84,.06c24.46-.61,48.44,17.4,51.64,45.18,3.23,28.09-15.61,51.63-41.68,56.59-11.16,2.13-21.86,.46-32.04-4.5-1.56-.76-2.61-.75-3.85,.55-3.56,3.69-7.19,7.32-10.87,10.89-1.2,1.17-1.35,2.02-.02,3.17,1.29,1.12,2.4,2.43,3.65,3.6,1.08,1.01,.97,1.85-.05,2.86-10.97,10.91-21.65,22.12-32.95,32.67-7.27,6.79-16.29,7.72-25.26,3.47C4.84,150.5,.27,143.44,0,133.78c-.19-6.85,2.34-12.53,7.12-17.31,10.19-10.19,20.42-20.34,30.53-30.62,1.81-1.84,2.86-1.62,4.49,.1,4.22,4.43,4.29,4.37,8.61,.04,2.71-2.71,5.36-5.46,8.14-8.09,1.3-1.23,1.34-2.28,.57-3.85-13.44-27.09-.67-59.78,27.59-70.67,2.35-.9,4.78-1.62,7.23-2.21,3.65-.88,7.36-1.34,10.57-1.1Zm41.96,51.13c.61-22.35-18.81-41.33-41.2-41.35-21.11-.03-41.57,16.74-41.61,41.34-.03,23.38,18.23,41.66,41.6,41.61,24.97-.06,41.92-20.79,41.21-41.59ZM9.93,132.46c-.01,6.82,2.85,10.96,8.11,13.41,4.92,2.28,10.99,1.06,15.11-3.01,8.11-8.01,16.11-16.12,24.21-24.13,1.23-1.22,1.44-2.07,.1-3.39-5.41-5.29-10.75-10.66-16.06-16.05-1.2-1.22-2.02-1.18-3.21,.02-8.13,8.21-16.34,16.35-24.48,24.56-2.57,2.59-3.96,5.74-3.78,8.59Zm49.7-29.44c.53-.45,1.06-.82,1.51-1.27,2.66-2.63,5.3-5.28,7.95-7.92q3.14-3.14,.1-6.18c-.52-.52-1.08-1.01-1.51-1.59-.97-1.32-1.85-1.25-2.96-.11-2.31,2.4-4.7,4.72-7.06,7.08-4.49,4.5-4.39,5.66,.86,9.34,.32,.23,.68,.4,1.11,.65Z"/>
      <path class="cls-1" d="M106.39,36.96c-5.38,0-10.75-.07-16.12,.03-2.13,.04-3.02-.73-2.79-2.85,.09-.81,0-1.63,.01-2.44,.04-4.91-.57-4.69,4.82-4.69,9.85,0,19.71,.07,29.56-.05,2.48-.03,3.22,.78,3.18,3.23-.11,6.77,0,6.77-6.68,6.77-3.99,0-7.98,0-11.97,0Z"/>
      <path class="cls-1" d="M105.99,55.55c-5.28,0-10.57-.06-15.85,.03-1.99,.03-2.74-.68-2.69-2.7,.22-8.62-1.29-7.2,7.09-7.28,9.1-.08,18.21,.05,27.31-.07,2.46-.03,3.22,.76,3.18,3.22-.11,6.81,0,6.81-6.86,6.81-4.06,0-8.13,0-12.19,0Z"/>
      <path class="cls-1" d="M99.33,74.13c-3.09,0-6.18-.06-9.27,.02-1.84,.05-2.72-.57-2.61-2.53,.11-1.78,.06-3.58,.02-5.36-.03-1.4,.52-2.13,1.99-2.12,6.58,.01,13.17,.01,19.75,0,1.48,0,2.01,.76,2,2.13-.02,1.87-.05,3.74,.01,5.61,.05,1.7-.77,2.29-2.38,2.26-3.17-.05-6.34-.02-9.51-.01Z"/>
    </g>
  </g>
</svg>