<?xml version="1.0" encoding="UTF-8"?>
<svg id="Capa_2" data-name="Capa 2" xmlns="http://www.w3.org/2000/svg" viewBox="0 0 156.79 156.8">
  <defs>
    <style>
      .cls-1 {
        fill: #fff;
      }
    </style>
  </defs>
  <g id="Capa_1-2" data-name="Capa 1">
    <g>
      <path class="cls-1" d="M32.76,15.69c1.41-.11,2.54,.54,3.67,1.21,4.19,2.52,8.4,5,12.55,7.57,1.24,.76,2.24,.6,3.62,.24,5.56-1.46,8.65-4.67,9.14-10.59,.26-3.12,1.37-6.18,2.14-9.26C64.81,1.14,66.24,.03,70.07,.01c5.46-.02,10.91-.02,16.37,0,3.37,.02,4.92,1.22,5.74,4.48,1.29,5.13,2.58,10.26,3.77,15.41,.31,1.36,.9,2.17,2.24,2.53,.94,.25,1.98,.46,2.73,1.02,3.33,2.46,6.2,1.42,9.23-.69,3.07-2.13,6.36-3.95,9.59-5.85,3.41-2.01,5.31-1.77,8.06,.96,3.75,3.73,7.5,7.47,11.23,11.23,2.54,2.57,2.83,4.54,1.01,7.66-2.55,4.36-5.14,8.69-7.8,12.98-.73,1.18-.88,2.2-.15,3.38,.38,.62,.82,1.29,.92,1.99,.72,4.96,4.3,6.23,8.52,6.98,3.52,.63,6.97,1.61,10.45,2.47,3.72,.92,4.79,2.32,4.81,6.2,.02,5.29,.01,10.59,0,15.88-.01,3.94-1.14,5.38-5,6.33-4.51,1.1-9,2.25-13.54,3.19-2.22,.46-3.23,1.73-4.36,3.65-2.73,4.64-2.09,8.51,1.13,12.58,1.96,2.47,3.34,5.39,4.96,8.12,1.83,3.1,1.68,5.21-.77,7.73-3.8,3.91-7.66,7.77-11.58,11.57-2.57,2.49-4.34,2.68-7.46,.88-4.23-2.44-8.42-4.96-12.58-7.53-1.47-.9-2.84-1.1-4.35-.26-.5,.28-1,.65-1.54,.73-4.92,.72-6.3,4.21-7.03,8.49-.6,3.52-1.63,6.97-2.52,10.43-.74,2.89-2.41,4.19-5.47,4.21-5.62,.04-11.24,.03-16.86,0-3.53-.01-4.96-1.09-5.88-4.61-1.17-4.49-2.29-8.99-3.31-13.51-.47-2.1-1.33-3.64-3.61-4.02-.39-.07-.81-.21-1.14-.43-3.65-2.54-6.9-1.87-10.34,.73-2.9,2.2-6.22,3.86-9.38,5.71-3.26,1.9-4.98,1.7-7.63-.91-3.77-3.71-7.51-7.46-11.23-11.22-2.91-2.94-3.09-4.58-.93-8.22,2.49-4.2,4.99-8.4,7.56-12.55,.72-1.17,.88-2.18,.19-3.39-.56-.99-1.15-2.03-1.36-3.12-.68-3.62-3.06-4.92-6.42-5.53-3.91-.71-7.77-1.79-11.62-2.8C1.08,91.94,.03,90.52,.02,86.81c-.02-5.46-.02-10.91,0-16.37,.02-3.49,1.27-5.05,4.61-5.88,4.74-1.18,9.46-2.41,14.22-3.5,1.7-.39,2.76-1.21,3.13-2.93,.12-.55,.27-1.15,.59-1.6,2.71-3.81,1.67-7.14-.87-10.63-2.15-2.95-3.86-6.23-5.66-9.41-1.66-2.92-1.53-4.71,.75-7.07,3.95-4.11,8.02-8.1,12.08-12.11,1.07-1.05,2.33-1.79,3.91-1.63Zm17.85,105.82c.86,.05,1.81,.25,2.69,.73,3.73,2.05,7.66,3.6,11.72,4.84,2.08,.63,3.22,2.07,3.72,4.14,.82,3.4,1.72,6.78,2.53,10.18,1.37,5.76,1.35,5.76,7.17,5.76,.9,0,1.8-.08,2.69,.02,1.86,.21,2.58-.74,2.98-2.42,1.04-4.43,2.27-8.83,3.28-13.27,.57-2.52,2.06-3.97,4.46-4.65,3.77-1.08,7.38-2.57,10.81-4.48,2.05-1.15,4.02-1.08,6.01,.13,2.85,1.74,5.69,3.5,8.59,5.14,6.79,3.82,4.34,4.17,9.88-1.11,.47-.45,.87-.98,1.39-1.37,1.55-1.16,1.53-2.36,.52-3.96-2.44-3.85-4.7-7.81-7.08-11.7-1.26-2.06-1.41-4.04-.22-6.21,1.92-3.5,3.48-7.17,4.54-11.04,.64-2.35,2.2-3.66,4.57-4.22,4.75-1.1,9.48-2.35,14.23-3.46,1.52-.36,2.2-1.08,2.1-2.7-.12-1.87-.16-3.76,0-5.61,.2-2.22-.68-3.17-2.86-3.62-4.38-.89-8.68-2.18-13.06-3.1-2.82-.59-4.42-2.15-5.16-4.86-.96-3.55-2.37-6.94-4.22-10.11-1.39-2.37-1.25-4.55,.2-6.87,2.47-3.93,4.75-7.97,7.2-11.92,.74-1.19,.65-2.05-.34-2.99-1.65-1.57-3.27-3.18-4.83-4.84-1.01-1.08-1.91-1.16-3.19-.37-4.01,2.5-8.09,4.87-12.13,7.32-1.97,1.19-3.92,1.46-6,.29-3.56-2.01-7.31-3.57-11.24-4.69-2.33-.67-3.64-2.18-4.17-4.6-1-4.53-2.23-9-3.24-13.53-.41-1.84-1.08-2.92-3.21-2.74-1.94,.16-3.91,.14-5.86,0-1.72-.12-2.48,.58-2.86,2.21-1.06,4.6-2.33,9.15-3.33,13.76-.61,2.81-2.17,4.42-4.89,5.13-3.32,.87-6.54,2.1-9.46,3.88-2.99,1.81-5.58,1.44-8.39-.41-3.53-2.33-7.26-4.35-10.85-6.6-1.34-.83-2.31-.78-3.39,.42-1.35,1.52-2.8,2.96-4.32,4.32-1.32,1.18-1.5,2.22-.51,3.78,2.52,3.99,4.86,8.1,7.29,12.15,1.15,1.91,1.22,3.82,.13,5.79-1.95,3.5-3.46,7.18-4.57,11.03-.67,2.3-2.08,3.74-4.49,4.31-4.44,1.03-8.83,2.25-13.26,3.3-1.6,.38-2.68,.92-2.56,2.87,.13,2.03,.16,4.08,0,6.1-.15,1.87,.7,2.6,2.37,3,4.51,1.07,8.99,2.29,13.49,3.37,2.28,.55,3.74,1.85,4.39,4.09,1.13,3.84,2.6,7.54,4.55,11.04,1.22,2.2,1.09,4.34-.25,6.46-1.39,2.2-2.72,4.45-4.06,6.68q-4.37,7.26,1.86,13.11c1.16,1.1,2.05,1.19,3.39,.35,3.79-2.38,7.67-4.62,11.51-6.93,1.13-.68,2.28-1.26,3.76-1.33Z"/>
      <path class="cls-1" d="M78.15,111.05c-17.87,0-32.19-14.27-32.4-32.29-.21-17.71,14.37-32.3,32.28-32.31,18.02-.01,32.3,14.21,32.31,32.19,.01,17.95-14.34,32.4-32.19,32.41Zm0-9.79c12.44-.01,22.5-10.08,22.55-22.55,.04-12.36-10.17-22.6-22.55-22.61-12.55-.01-22.64,10.12-22.61,22.73,.02,12.43,10.12,22.44,22.62,22.43Z"/>
    </g>
  </g>
</svg>