<?xml version="1.0" encoding="UTF-8"?>
<svg id="Capa_2" data-name="Capa 2" xmlns="http://www.w3.org/2000/svg" viewBox="0 0 156.84 156.87">
  <defs>
    <style>
      .cls-1 {
        fill: #262626;
      }
    </style>
  </defs>
  <g id="Capa_1-2" data-name="Capa 1">
    <path id="Trazado_182" data-name="Trazado 182" class="cls-1" d="M0,65.53C-.09,29.43,29.1,.09,65.19,0c31.03-.08,57.85,21.68,64.16,52.06,3.47,15.85,.75,32.43-7.6,46.35-1.3,1.6-1.05,3.95,.55,5.25,.1,.08,.21,.16,.32,.23,9.97,9.82,19.87,19.69,29.69,29.62,5.53,4.87,6.06,13.3,1.2,18.83-4.87,5.53-13.29,6.07-18.82,1.2-.45-.4-.87-.82-1.26-1.27-9.84-9.78-19.69-19.55-29.39-29.45-1.32-1.86-3.89-2.3-5.75-.98-.09,.07-.18,.14-.27,.21-31.24,18.05-71.2,7.36-89.26-23.89-2.83-4.9-5.01-10.14-6.49-15.59-.79-2.82-1.39-5.69-1.78-8.58C.09,71.18,.13,68.34,0,65.53Zm65.44,45.17c24.83,.04,45-20.05,45.04-44.88v-.36c-.03-24.91-20.25-45.07-45.16-45.04-24.91,.03-45.07,20.25-45.04,45.16-.09,24.83,19.96,45.04,44.8,45.13,.12,0,.24,0,.37,0h0Z"/>
  </g>
</svg>