<svg xmlns="http://www.w3.org/2000/svg" width="38.214" height="42.519" viewBox="0 0 38.214 42.519">
  <path id="Trazado_246" data-name="Trazado 246" d="M34.3,102.24c7.144.017,12.6,4.955,13.35,11.334a12.62,12.62,0,0,1-.963,5.932,66.413,66.413,0,0,1-6.57,12.436q-2.28,3.6-4.737,7.092c-.253.361-.442.594-.8.079a122.765,122.765,0,0,1-9.937-16.243,23.342,23.342,0,0,1-2.365-6.917,11.035,11.035,0,0,1,1.491-7.054A12.461,12.461,0,0,1,34.3,102.24Zm.691,5.1a7.337,7.337,0,0,0-7.552,7.466,7.51,7.51,0,0,0,15.019.085v-.011a7.3,7.3,0,0,0-7.467-7.54Z" transform="translate(-15.831 -102.24)" fill="#be0d19"/>
  <path id="Trazado_247" data-name="Trazado 247" d="M34.9,144.759a67.54,67.54,0,0,1-13.188-1.21,19.071,19.071,0,0,1-4.241-1.307,6.492,6.492,0,0,1-1.036-.572c-.8-.569-.808-1.128-.016-1.7a9.739,9.739,0,0,1,3.194-1.351A45.015,45.015,0,0,1,29.851,137.1c.32-.013.638-.07.957-.1a.789.789,0,0,1,.7.159c.2.211.488.434.378.749-.1.281-.43.161-.664.179a41.247,41.247,0,0,0-7.995,1.016,5.647,5.647,0,0,0-1.768.744,1.068,1.068,0,0,0,0,1.93,6.728,6.728,0,0,0,2.48.944,37.152,37.152,0,0,0,6.394.763q4.63.193,9.264,0a33.526,33.526,0,0,0,6.9-.891,6.582,6.582,0,0,0,1.593-.6c.482-.269.958-.552.949-1.209s-.508-.934-.993-1.177a11.733,11.733,0,0,0-3.852-1.025c-1.837-.23-3.689-.332-5.533-.5-.23-.02-.559.1-.65-.2-.086-.283.176-.493.35-.7a.694.694,0,0,1,.612-.2,49.5,49.5,0,0,1,12.193,1.895,8.858,8.858,0,0,1,1.837.784c.459.275,1.056.5,1.049,1.139s-.566.884-1.043,1.149a14.042,14.042,0,0,1-3.469,1.278,55.132,55.132,0,0,1-10.336,1.4C37.766,144.718,36.335,144.74,34.9,144.759Z" transform="translate(-15.831 -102.24)" fill="#be0d19"/>
  <path id="Trazado_248" data-name="Trazado 248" d="M22.6,140.786a2.063,2.063,0,0,1,1.078-.425,56.464,56.464,0,0,1,7.637-.924,2.546,2.546,0,0,1,2.819,1.375c.546.946,1.089.944,1.64-.018a2.587,2.587,0,0,1,2.74-1.339,37.44,37.44,0,0,1,8.134,1.046c.223.061.589.03.585.323s-.379.274-.6.334a31.879,31.879,0,0,1-5.848.891,73.148,73.148,0,0,1-8.518.169,47.794,47.794,0,0,1-8.385-.889A2.487,2.487,0,0,1,22.6,140.786Z" transform="translate(-15.831 -102.24)" fill="#be0d19"/>
  <path id="Trazado_249" data-name="Trazado 249" d="M41.089,114.8a6.137,6.137,0,1,1-12.273-.17,6.137,6.137,0,0,1,12.273.17Z" transform="translate(-15.831 -102.24)" fill="#be0d19"/>
</svg>
