<?xml version="1.0" encoding="UTF-8"?>
<svg id="Capa_2" data-name="Capa 2" xmlns="http://www.w3.org/2000/svg" viewBox="0 0 142.18 90.83">
  <g id="Capa_1-2" data-name="Capa 1">
    <g id="Grupo_143" data-name="Grupo 143">
      <path id="Trazado_229" data-name="Trazado 229" d="M72.12,0c10,.37,19.78,3.01,28.6,7.74,15.39,8.24,28.86,19.65,39.5,33.49,2.32,1.95,2.62,5.4,.67,7.72-.2,.24-.43,.47-.67,.67-9.64,12.5-21.55,23.06-35.1,31.16-10.81,6.76-23.35,10.24-36.1,10.03-9.18-.42-18.17-2.81-26.34-7.03C26.73,75.52,12.8,63.84,1.89,49.57c-2.28-1.96-2.54-5.4-.58-7.68,.18-.21,.37-.4,.58-.58C11.56,28.76,23.52,18.15,37.14,10.04,47.68,3.6,59.76,.13,72.12,0Zm-2.18,9.97c-6.16,.03-12.25,1.32-17.89,3.81-15.56,6.81-29.24,17.29-39.87,30.53-.9,1.04-.49,1.7,.21,2.51,9.21,11.1,20.43,20.37,33.08,27.31,15.57,8.87,34.62,9.04,50.35,.46,13.05-6.97,24.62-16.42,34.06-27.82,.96-1.1,.76-1.82-.09-2.81-8.33-9.98-18.27-18.5-29.41-25.21-9.12-5.72-19.67-8.76-30.44-8.78Z"/>
      <path id="Trazado_230" data-name="Trazado 230" d="M99.42,45.43c-.1,15.61-12.75,28.23-28.36,28.29-15.63,0-28.31-12.67-28.31-28.31s12.67-28.31,28.31-28.31c15.59,.13,28.21,12.73,28.36,28.32Zm-28.24-18.38c-10.15-.04-18.41,8.15-18.46,18.3-.04,10.15,8.15,18.42,18.3,18.46,10.13,.04,18.39-8.13,18.46-18.26,.1-10.11-8.01-18.38-18.12-18.49-.06,0-.12,0-.19,0h0Z"/>
    </g>
  </g>
</svg>