<?xml version="1.0" encoding="UTF-8"?>
<svg id="Capa_2" data-name="Capa 2" xmlns="http://www.w3.org/2000/svg" viewBox="0 0 46.74 46.74">
  <defs>
    <style>
      .cls-1 {
        fill: #f26363;
      }
    </style>
  </defs>
  <g id="Capa_1-2" data-name="Capa 1">
    <g id="Grupo_110" data-name="Grupo 110">
      <g id="Grupo_111" data-name="Grupo 111">
        <path id="Trazado_225" data-name="Trazado 225" class="cls-1" d="M39.87,6.9c9.1,9.02,9.17,23.7,.15,32.8-.07,.07-.14,.14-.2,.2-9.03,9.08-23.72,9.12-32.8,.08-.05-.05-.1-.1-.16-.16C-2.23,30.81-2.3,16.12,6.72,7.02c.07-.07,.13-.13,.2-.2,9.04-9.08,23.74-9.11,32.82-.06,.05,.04,.09,.09,.13,.14Zm-30.58,2.41c-7.75,7.76-7.76,20.32-.02,28.09,7.76,7.79,20.36,7.81,28.14,.06h0c7.78-7.76,7.79-20.36,.04-28.14l-.02-.02c-7.76-7.77-20.35-7.78-28.12-.02l-.03,.03h0Z"/>
        <path id="Trazado_226" data-name="Trazado 226" class="cls-1" d="M22.14,38.05c-.38-.43-.56-1-.49-1.58,0-3.49-.02-6.97,.02-10.46,0-.72-.15-.98-.93-.97-3.43,.05-6.86,.02-10.29,.02-.27,0-.54,0-.81-.03-.84-.1-1.48-.81-1.49-1.66-.01-.85,.61-1.57,1.45-1.69,.29-.04,.59-.05,.89-.04,3.43,0,6.86-.02,10.29,.01,.73,0,.9-.22,.9-.92-.04-3.43-.02-6.86-.01-10.29-.01-.3,0-.59,.04-.89,.13-.84,.86-1.45,1.71-1.43,.82,0,1.52,.6,1.63,1.42,.04,.29,.05,.59,.04,.89,0,3.4,.02,6.81-.01,10.21,0,.76,.17,1.01,.97,1.01,3.4-.05,6.81-.02,10.21-.02,.24,0,.49-.01,.73,.01,.91,.03,1.63,.79,1.61,1.7,0,.91-.72,1.66-1.63,1.68-.94,.05-1.89,.02-2.84,.02-2.76,0-5.51,.01-8.27-.01-.61,0-.79,.18-.78,.78,.03,3.54,0,7.08,.01,10.62,.06,.57-.11,1.14-.48,1.58-.63,.68-1.68,.72-2.36,.1-.03-.03-.06-.05-.08-.08Z"/>
      </g>
    </g>
  </g>
</svg>