<?xml version="1.0" encoding="UTF-8"?>
<svg id="Capa_2" data-name="Capa 2" xmlns="http://www.w3.org/2000/svg" viewBox="0 0 156.84 156.43">
  <defs>
    <style>
      .cls-1 {
        fill: #262626;
      }
    </style>
  </defs>
  <g id="Capa_1-2" data-name="Capa 1">
    <g id="Grupo_183" data-name="Grupo 183">
      <path id="Trazado_237" data-name="Trazado 237" class="cls-1" d="M.1,78.12C.1,58.92,.35,39.73,0,20.53-.14,9.35,8.82,.17,20.01,.03c.17,0,.33,0,.5,0C39.38,.11,58.25,.06,77.13,.03c3.02-.28,5.88,1.37,7.16,4.11,1.13,2.35,.72,5.15-1.05,7.07-1.81,1.94-4.44,2.89-7.07,2.57H20.78c-5.02,0-7.18,2.13-7.18,7.09v114.69c0,4.95,2.16,7.07,7.2,7.07,18.14,.02,36.28,.03,54.41,.02,1.38-.02,2.76,.08,4.12,.32,3.27,.55,5.63,3.43,5.54,6.74-.08,3.31-2.53,6.08-5.81,6.55-.81,.11-1.62,.16-2.43,.13-18.79,0-37.58,.04-56.37,0-9.03,.17-17.04-5.75-19.54-14.42-.5-1.97-.71-4.01-.61-6.04,0-19.28,0-38.55,0-57.83Z"/>
      <path id="Trazado_238" data-name="Trazado 238" class="cls-1" d="M132.7,85.6c-.98-.49-2.1-.66-3.18-.48-22.43-.02-44.88-.03-67.34-.03-1.7,.01-3.41-.12-5.09-.4-3.56-.79-5.81-4.31-5.02-7.87,.55-2.49,2.48-4.44,4.97-5.01,1.68-.28,3.39-.42,5.09-.41,22.43-.03,44.88-.03,67.34-.03,1.01,.15,2.04,.04,3-.3-.16-1.06-1.05-1.57-1.7-2.22-8.07-8.03-16.15-16.05-24.24-24.06-2.04-1.59-3.03-4.18-2.58-6.72,.67-3.65,4.17-6.05,7.82-5.38,1.28,.24,2.47,.84,3.42,1.75,3.15,2.82,6.07,5.88,9.09,8.84,9.68,9.53,19.36,19.06,29.03,28.59,4.72,4.67,4.74,8.06,.04,12.67-12.5,12.34-25.03,24.65-37.58,36.95-2.4,2.85-6.66,3.22-9.51,.82-1.12-.94-1.9-2.21-2.23-3.63-.62-2.6,.35-5.33,2.46-6.97,8.08-8.01,16.17-16.03,24.24-24.03,.64-.64,1.24-1.28,1.99-2.08Z"/>
    </g>
  </g>
</svg>