<svg xmlns="http://www.w3.org/2000/svg" width="43.966" height="42.52" viewBox="0 0 43.966 42.52">
  <path id="Trazado_238" data-name="Trazado 238" d="M-3.73,13.992c0-.685-.008-1.37,0-2.055.011-.8.293-1.106,1.125-1.13Q-.993,10.76.616,10.8a.741.741,0,0,0,.857-.66A13.071,13.071,0,0,1,3.012,6.5a.638.638,0,0,0-.066-.9q-.027-.023-.054-.042C2.084,4.781,1.3,3.984.517,3.182a.916.916,0,0,1,0-1.533q1.485-1.517,3-3c.555-.544.959-.545,1.538.01C5.852-.585,6.638.181,7.384.983A.706.706,0,0,0,8.437,1.1,12.98,12.98,0,0,1,12.092-.419c.514-.124.639-.393.628-.872-.024-1.073-.014-2.147,0-3.22.007-.78.278-1.1,1.06-1.12q2.121-.051,4.246,0c.8.019,1.074.36,1.079,1.178.007,1.1.018,2.193,0,3.289-.01.459.2.634.615.741a13.413,13.413,0,0,1,3.771,1.594.6.6,0,0,0,.884-.123C25.111.275,25.875-.48,26.641-1.23c.72-.7,1.069-.7,1.785.007q1.413,1.4,2.809,2.809c.639.649.632,1.023-.017,1.683-.752.765-1.505,1.531-2.278,2.275a.636.636,0,0,0-.144.938,12.9,12.9,0,0,1,1.563,3.708.7.7,0,0,0,.783.617l.039-.006c1-.026,2.01-.016,3.014,0,1.071.014,1.348.294,1.35,1.335,0,1.348-.009,2.695.005,4.042.005.554-.195.97-.756,1.054-.54.081-1.079.21-1.452-.5a4.508,4.508,0,0,0-6.034-2.162c-.356.141-.516.193-.516-.314A10.887,10.887,0,0,0,5.154,12.334a14.847,14.847,0,0,0-.125,1.977c0,.4-.148.442-.446.285A4.6,4.6,0,0,0-1.6,16.835c-.305.673-.884.452-1.37.4a.824.824,0,0,1-.758-.887l0-.019V13.995Z" transform="translate(6.072 5.656)" fill="#be0d19"/>
  <path id="Trazado_239" data-name="Trazado 239" d="M21.339,31.322c0-1.552-.015-3.1.008-4.656.008-.522-.1-.8-.706-.793-.584,0-.735.229-.731.774.018,3.081.01,6.162.008,9.244,0,.938-.02.959-.955.96q-3.013,0-6.025,0c-1.038,0-1.041,0-1.041-1.013,0-3.058-.005-6.116,0-9.175,0-.462-.034-.784-.641-.789-.584-.005-.8.157-.8.775.026,3.081.013,6.162.011,9.243,0,.945-.139,1.062-1.082.923a2.374,2.374,0,0,1-2.159-2.482c-.008-2.647-.017-5.3,0-7.942a5.482,5.482,0,0,1,5.341-5.352q3.32-.031,6.641,0a5.483,5.483,0,0,1,5.358,5.336c.023,2.647.013,5.3,0,7.942A2.433,2.433,0,0,1,22.1,36.853c-.547.022-.781-.153-.77-.737C21.359,34.517,21.339,32.92,21.339,31.322Z" transform="translate(6.072 5.656)" fill="#be0d19"/>
  <path id="Trazado_240" data-name="Trazado 240" d="M22.229,18.07c-.524,0-1.049-.009-1.574,0-.556.012-.717-.138-.491-.729a4.582,4.582,0,0,0-3.043-6.183,4.344,4.344,0,0,0-4.554,1.3,4.411,4.411,0,0,0-.981,4.76c.284.826.274.847-.63.851-.935.005-1.872-.036-2.805.014A1.019,1.019,0,0,1,7,17.285a9.477,9.477,0,1,1,18.154-5.318,9.321,9.321,0,0,1-.393,5.443.856.856,0,0,1-.96.668C23.281,18.045,22.754,18.071,22.229,18.07Z" transform="translate(6.072 5.656)" fill="#be0d19"/>
  <path id="Trazado_241" data-name="Trazado 241" d="M-2.822,32.518c0,1.163.005,2.327,0,3.491-.005.721-.127.792-.812.515A3.879,3.879,0,0,1-6.063,32.95q-.018-1.677,0-3.354a5.451,5.451,0,0,1,5.4-5.415c2.053-.014,4.107.009,6.16-.012.531-.005.719.16.555.679a7.682,7.682,0,0,0-.245,2.372q.012,3.491,0,6.982a3.936,3.936,0,0,0,.5,2.033c.239.414.218.621-.327.619-2.236-.009-4.472-.014-6.708,0-.567,0-.679-.278-.676-.77.014-2.35.008-4.7,0-7.051,0-.733-.449-1.026-1.151-.775-.33.119-.265.392-.266.63C-2.825,30.1-2.822,31.309-2.822,32.518Z" transform="translate(6.072 5.656)" fill="#be0d19"/>
  <path id="Trazado_242" data-name="Trazado 242" d="M33.215,32.552c0,1.141-.028,2.283.011,3.422.022.636-.166.9-.843.889-2.144-.032-4.289-.017-6.434-.008-.5,0-.773-.068-.429-.643a3.722,3.722,0,0,0,.489-1.965q-.017-3.8,0-7.6a7.318,7.318,0,0,0-.264-1.89c-.105-.406.013-.588.46-.585,2.259.015,4.52-.049,6.775.033a5.447,5.447,0,0,1,4.886,5c.044,1.3.029,2.6.007,3.9a3.956,3.956,0,0,1-2.507,3.456c-.541.2-.74.078-.734-.514.017-2.35-.005-4.7.015-7.051,0-.532-.114-.781-.715-.779s-.739.229-.725.772C33.236,30.179,33.216,31.366,33.215,32.552Z" transform="translate(6.072 5.656)" fill="#be0d19"/>
  <path id="Trazado_243" data-name="Trazado 243" d="M15.88,18.794a3.139,3.139,0,0,1-3.166-3.111c0-.039,0-.078,0-.116a3.193,3.193,0,0,1,6.385.054A3.137,3.137,0,0,1,16,18.8Z" transform="translate(6.072 5.656)" fill="#be0d19"/>
  <path id="Trazado_244" data-name="Trazado 244" d="M-.584,18.77a3.138,3.138,0,0,1,3.058-3.216h.119a3.193,3.193,0,0,1,.048,6.386A3.141,3.141,0,0,1-.583,18.886C-.584,18.847-.584,18.809-.584,18.77Z" transform="translate(6.072 5.656)" fill="#be0d19"/>
  <path id="Trazado_245" data-name="Trazado 245" d="M32.4,18.837a3.141,3.141,0,0,1-3.175,3.1l-.117,0a3.193,3.193,0,0,1,.182-6.384A3.144,3.144,0,0,1,32.4,18.729Z" transform="translate(6.072 5.656)" fill="#be0d19"/>
</svg>
