<?xml version="1.0" encoding="UTF-8"?>
<svg id="Capa_2" data-name="Capa 2" xmlns="http://www.w3.org/2000/svg" viewBox="0 0 156.84 156.72">
  <defs>
    <style>
      .cls-1 {
        fill: #f26363;
      }
    </style>
  </defs>
  <g id="Capa_1-2" data-name="Capa 1">
    <g>
      <path class="cls-1" d="m78.4,156.72C35.24,157.19-.02,121.03,0,78.39.02,35.71,35.35.02,78.45,0c42.89-.02,78.58,35.7,78.39,78.72-.18,42.63-35.48,78.51-78.44,78ZM11.69,78.34c.69,36.83,28.61,66.41,66.52,66.63,36.9.22,66.86-28.72,66.77-66.77-.09-36.77-28.61-66.18-66.35-66.35-37.15-.16-66.11,28.76-66.94,66.49Z"/>
      <path class="cls-1" d="m68.15,61.05h-13.65c-.07-6.69,2.22-12.22,6.88-16.59s10.79-6.55,18.4-6.55c4.9,0,9.07.9,12.51,2.71,3.44,1.81,6.19,4.41,8.26,7.82,2.07,3.41,3.1,6.98,3.1,10.74,0,2.05-.33,4.07-.99,6.05s-1.7,4.01-3.13,6.1c-.83,1.22-2.83,3.27-5.99,6.15-3.02,2.75-4.92,4.68-5.68,5.81-.76,1.13-1.41,2.63-1.93,4.51-.52,1.88-.85,4.48-.99,7.82h-14.12l-.05-2.35c0-4.66.85-8.89,2.55-12.69,1.7-3.8,4.46-7.37,8.29-10.71,3.68-3.23,5.91-5.45,6.67-6.67.76-1.22,1.15-2.64,1.15-4.27,0-2.22-.93-4.11-2.79-5.65-1.86-1.55-4.35-2.32-7.48-2.32s-5.82.94-7.87,2.83c-2.05,1.88-3.09,4.31-3.13,7.29Zm9.96,40.5c2.54,0,4.7.87,6.49,2.61,1.79,1.74,2.68,3.84,2.68,6.31s-.89,4.58-2.66,6.33c-1.77,1.75-3.91,2.63-6.41,2.63s-4.63-.88-6.38-2.63c-1.75-1.75-2.63-3.86-2.63-6.33s.87-4.57,2.61-6.31c1.74-1.74,3.84-2.61,6.31-2.61Z"/>
    </g>
  </g>
</svg>