<?xml version="1.0" encoding="UTF-8"?>
<svg id="Capa_2" data-name="Capa 2" xmlns="http://www.w3.org/2000/svg" viewBox="0 0 156.36 156.3">
  <g id="Capa_1-2" data-name="Capa 1">
    <g>
      <path d="M33.06,77.72c0-7.16,.05-14.32-.03-21.49-.02-2.13,.75-3.39,2.71-4.33,13.25-6.3,26.47-12.66,39.65-19.11,2.12-1.04,3.86-1.05,5.97-.02,13.19,6.43,26.43,12.75,39.67,19.06,1.83,.87,2.61,2.1,2.6,4.14-.05,14.5-.05,29,0,43.5,0,2.02-.7,3.3-2.54,4.18-13.64,6.51-27.25,13.07-40.87,19.64-1.3,.63-2.5,.63-3.8,0-13.61-6.57-27.23-13.13-40.86-19.65-1.85-.88-2.54-2.18-2.53-4.19,.07-7.25,.03-14.5,.03-21.75Zm85.39,1.51c0-5.92-.06-11.83,.03-17.75,.03-2.02-.51-2.22-2.25-1.37-10.94,5.35-21.92,10.63-32.91,15.88-1.52,.73-2.3,1.62-2.3,3.41,.06,11.74,.06,23.49,0,35.23,0,2.05,.62,2.19,2.32,1.37,10.88-5.29,21.77-10.54,32.7-15.71,1.75-.83,2.48-1.86,2.44-3.84-.12-5.74-.04-11.48-.04-17.22Zm-42.83,17.74c0-5.83-.04-11.67,.03-17.5,.02-1.71-.54-2.73-2.15-3.49-10.7-5.06-21.35-10.22-32.03-15.34-2.76-1.32-2.95-1.21-2.95,1.83-.02,11.31,.05,22.63-.06,33.94-.02,2.24,.9,3.31,2.78,4.2,10.69,5.08,21.37,10.21,32,15.41,2,.98,2.44,.44,2.42-1.55-.06-5.83-.02-11.67-.02-17.5Zm17.97-52.39c-4.65-2.25-8.74-4.12-12.72-6.19-1.73-.9-3.15-.94-4.94-.05-8.07,3.99-16.21,7.82-24.32,11.73-3.08,1.48-6.14,3-9.71,4.75,2.71,1.3,5.1,2.09,7.07,3.47,5.48,3.83,10.45,3.36,16.27,.12,8.99-5.02,18.51-9.09,28.36-13.83Zm21.29,10.25c-5.11-2.44-9.62-4.6-14.14-6.75-1.19-.57-2.24-.02-3.27,.48-10.66,5.13-21.31,10.26-31.96,15.4-.53,.25-1.4,.29-1.41,1.02,0,.84,.89,.97,1.51,1.27,3.49,1.69,7.02,3.33,10.47,5.1,1.53,.78,2.84,.85,4.45,.06,7.75-3.83,15.56-7.54,23.36-11.29,3.47-1.67,6.93-3.34,10.99-5.29Z"/>
      <path d="M21.24,132.43c-.4,3.79-.79,7.63-1.21,11.46-.14,1.23-.24,2.48-.59,3.66-.38,1.3-1.35,2.15-2.79,1.93-1.39-.22-2.2-1.2-2.14-2.62,.09-2.12,.29-4.23,.51-6.34,.49-4.65,1.03-9.3,1.56-13.95,.34-3.03,1.29-3.91,4.31-3.61,6.33,.63,12.64,1.37,18.96,2.07,1.81,.2,3.57,.77,3.34,2.93-.23,2.19-1.93,2.63-3.98,2.36-4.01-.53-8.04-.91-12.57-1.4,1.23,2.17,2.79,3.32,4.22,4.53,11.61,9.8,24.98,15.46,40.1,17.08,36.04,3.88,70.81-20.3,78.56-57.36,2.93-14,1.91-27.77-3.14-41.19-.19-.5-.42-.98-.57-1.49-.46-1.54-.21-2.9,1.41-3.52,1.76-.67,2.82,.28,3.51,1.86,2.17,4.97,3.69,10.17,4.5,15.5,4.31,28.29-3.78,52.53-24.74,72.04-13.12,12.21-28.99,18.7-46.95,19.78-23.67,1.42-43.91-6.38-60.82-22.94-.35-.35-.62-.89-1.5-.77Z"/>
      <path d="M135.42,24.17c.41-3.83,.79-7.57,1.21-11.31,.16-1.4,.29-2.82,.64-4.18,.31-1.21,1.25-1.97,2.57-1.85,1.43,.12,2.26,1.02,2.3,2.45,.04,1.41,0,2.83-.16,4.24-.61,5.62-1.32,11.23-1.9,16.85-.24,2.32-1.4,3.38-3.65,3.15-6.85-.7-13.71-1.42-20.55-2.21-1.47-.17-2.5-1.12-2.39-2.68,.12-1.72,1.32-2.45,2.96-2.32,3.96,.32,7.92,.72,11.88,1.07,.52,.05,1.04,0,1.75,0-1.37-1.47-2.48-2.92-3.84-4.08-11.83-10.12-25.41-16.25-41.01-17.46C57.12,3.66,34.78,14.26,18.37,36.99c-8.04,11.13-12.14,23.84-12.72,37.65-.43,10.3,.98,20.27,4.68,29.9,.69,1.8,.76,3.44-1.28,4.19-2.08,.78-3.08-.65-3.7-2.4C-5.06,76.77-.37,49.76,20.13,26.11,35.25,8.67,55.11,.12,78.08,0c21.13-.11,39.54,7.52,54.86,22.27,.68,.65,1.18,1.54,2.49,1.89Z"/>
      <path d="M50.6,76.73c.39,.14,1.15,.35,1.86,.68,3.44,1.61,6.85,3.26,10.28,4.89,1.64,.78,3.08,1.85,2.19,3.86-.95,2.14-2.73,1.8-4.49,.94-3.72-1.83-7.47-3.6-11.19-5.46-1.19-.6-1.95-1.6-1.6-3.02,.31-1.26,1.24-1.87,2.95-1.89Z"/>
    </g>
  </g>
</svg>