<?xml version="1.0" encoding="UTF-8"?>
<svg id="Capa_2" data-name="Capa 2" xmlns="http://www.w3.org/2000/svg" viewBox="0 0 153.95 156.84">
  <defs>
    <style>
      .cls-1 {
        fill: #fff;
      }
    </style>
  </defs>
  <g id="Capa_1-2" data-name="Capa 1">
    <g>
      <path class="cls-1" d="M49.71,42.87c16.78,3.24,33.52,6.67,50.27,10.04,.59,.12,1.22,.12,1.79,.32,2.04,.73,2.78-.25,3.18-2.11,1.39-6.53,2.85-13.05,4.31-19.57,2.18-9.73,4.43-19.45,6.52-29.21,.46-2.16,1.46-2.61,3.46-2.2,8.75,1.8,17.53,3.48,26.27,5.29,5.94,1.23,9.32,6.21,8.23,11.89-.99,5.14-6.2,8.44-11.96,7.47-3.16-.53-6.31-1.19-9.44-1.91-2.54-.59-3.8,.18-4.1,3.79-.45,5.48-1.71,10.83-3.69,15.96-.63,1.62-.23,2.84,.42,4.13,2.23,4.42,4.43,8.85,6.68,13.26,.66,1.29,.85,2.5,.51,3.98-3.51,15.21-6.95,30.44-10.4,45.66-.77,3.38-1.48,6.78-2.25,10.16-.24,1.06-.16,2,.24,3.03,5.7,14.71-2.01,29.92-17.37,33.36-12.73,2.85-24.87-4.37-28.36-16.59-1.17-4.09-3.2-5.32-6.99-5.95-11.72-1.96-23.38-4.27-35.06-6.44-8.01-1.49-16.01-3.08-24.06-4.39-5.82-.95-9.36-6.82-7.34-11.75,.62-1.51,.85-3.18,1.26-4.78,.61-2.42,2.04-4.35,4.27-5.29,2.14-.9,2.9-2.39,3.33-4.47,1.46-6.99,6.42-32.16,9.61-48.03,1.28-6.37,7.5-10.48,13.86-9.15l16.81,3.49ZM15.84,94.99c-1.16,5.36-1.13,5.39,4.43,6.51,19.05,3.84,38.1,7.66,57.15,11.51,2.35,.48,4.48,.69,6.53-1.15,1.53-1.38,3.53-2.28,5.57-2.74,1.92-.43,2.68-1.51,3.07-3.32,2.02-9.24,4.13-18.45,6.21-27.68,1.22-5.42,2.46-10.83,3.64-16.25,.25-1.17,.86-2.65-1.97-2.71-3.74-.09-7.44-.74-10.94-2.06-3.25-1.23-4.15-.68-4.71,1.58-1.03,4.21-2.4,8.34-3.48,12.54-.74,2.88-2.21,2.83-6.52,1.36-6.95-2.37-14.19-3.78-21.51-4.29-4.41-.31-5.81-.7-4.92-3.51,1.34-4.22,2.46-8.5,3.65-12.76,.23-.81,.74-1.83-.21-2.38l-17.81-3.77c-3.84-.81-7.63,1.62-8.48,5.46l-9.69,43.67Zm-4.4,10.9c-2.18-.14-3.54,.77-4.08,2.88-.36,1.43-.74,2.85-1.02,4.3-.41,2.04,.32,3.37,2.49,3.76,3.16,.57,6.3,1.18,9.45,1.76,17.55,3.27,35.11,6.52,52.65,9.83,1.27,.24,1.99,.07,2.32-1.25,.58-2.37,1.34-4.67,2.58-6.79,.64-1.08,.18-1.6-.91-1.82-.68-.14-1.35-.3-2.03-.44-15.21-3.05-30.43-6.1-45.64-9.14-5.27-1.05-10.54-2.07-15.81-3.1Zm104.14,26.48c0-10.35-7.96-18.44-18.2-18.47-10.45-.04-18.59,8-18.6,18.36-.01,10.43,8.04,18.47,18.49,18.45,10.29-.02,18.3-8.03,18.31-18.33Zm-14.27-24.14c2.64,.34,2.41-1.49,2.69-2.69,4.1-17.75,8.15-35.51,12.21-53.28,2.2-9.64,4.4-19.29,6.56-28.94,.16-.69,.7-1.44-.18-2.13-2.23-1.74-4.63-.88-5.25,1.89-1.84,8.3-3.7,16.6-5.56,24.9-4.24,18.88-8.5,37.75-12.73,56.63-.76,3.39-.7,3.4,2.25,3.63ZM142.56,18.84c3.08,.11,4.71-.63,5.21-2.9,.46-2.1-.65-3.94-3.01-4.45-7.2-1.55-14.43-2.95-21.66-4.38-1.4-.28-2.28,.22-2.6,1.77-1.26,6.25-1.69,5.26,4.1,6.35,.26,.05,.5,.13,.76,.19,6.03,1.2,12.07,2.4,17.19,3.42Zm-24.54,72c2.07,.55,2.15-.97,2.41-2.07,1.08-4.64,1.93-9.34,3.15-13.94,.83-3.13-1.54-2.56-3.06-3.14-1.83-.7-2.68-.09-3.07,1.8-.97,4.67-1.91,9.35-3.18,13.94-.63,2.28,.07,3.03,2.14,3.2,.6,.05,1.2,.16,1.62,.21Zm-4.14,5.43c-1.27-.23-1.66,.52-1.9,1.58-.62,2.78-1.02,5.65-2,8.31-1.27,3.45-.34,5.6,2.73,7.42,1.49,.88,1.91,.66,2.24-.83,.86-3.88,1.64-7.78,2.67-11.61,1.26-4.7,0-4.12-3.74-4.85ZM61.25,63.9c1.32,.38,1.81-.4,2.13-1.55,.72-2.67,1.48-5.34,2.26-8,.23-.78,.52-1.67-.38-2.06-1.91-.83-4.02-1.48-6.03-1.15-1.54,.25-1.15,2.31-1.66,3.54-.36,.87-.51,1.83-.78,2.75-1.71,5.69-1.57,5.89,4.47,6.48Zm13.37,2.7c1,.24,1.71-.07,2-1.1,.87-3.07,1.74-6.14,2.6-9.21,.15-.55,.09-1.09-.47-1.32-1.93-.79-4.04-1.43-6.02-1.11-1.38,.23-1.27,2.24-1.71,3.49-.35,.97-.55,2-.83,2.99-1.58,5.52-2.29,5.03,3.93,6.14,.17,.03,.34,.08,.5,.12Zm47.84-11.48c-.23-.04-.47-.08-.7-.12-.67,2.98-1.35,5.96-2.01,8.94-.12,.54-.1,1.15,.45,1.36,1.6,.6,3.4,1.59,4.93,.58,1.44-.95,1.13-2.83,.52-4.28-.94-2.21-2.11-4.33-3.19-6.48Z"/>
      <path class="cls-1" d="M97.1,146.13c-7.35-.05-13.85-6.68-13.7-13.97,.15-7.32,6.55-13.65,13.78-13.65,7.4,0,13.88,6.5,13.84,13.85-.04,7.35-6.58,13.83-13.93,13.77Zm.1-21.65c-4.02-.02-7.57,3.59-7.61,7.75-.04,4.38,3.43,7.95,7.68,7.87,4.04-.07,7.68-3.67,7.75-7.69,.08-3.97-3.82-7.92-7.83-7.94Z"/>
    </g>
  </g>
</svg>