<?xml version="1.0" encoding="UTF-8"?>
<svg id="Capa_2" data-name="Capa 2" xmlns="http://www.w3.org/2000/svg" viewBox="0 0 284.51 64.8">
  <defs>
    <style>
      .cls-1 {
        fill: #bc0d19;
      }

      .cls-2 {
        fill: #515151;
      }
    </style>
  </defs>
  <g id="Capa_1-2" data-name="Capa 1">
    <g>
      <rect class="cls-2" x="10.95" y="64.3" width="264.92" height=".5"/>
      <g>
        <g>
          <path class="cls-2" d="M31.32,22.84h3.55v4.95c1.42-1.9,3-3.31,4.72-4.25s3.61-1.41,5.64-1.41,3.9,.52,5.5,1.57,2.78,2.46,3.54,4.24,1.14,4.54,1.14,8.3v14.22h-3.55v-13.18c0-3.18-.13-5.31-.4-6.37-.41-1.83-1.2-3.2-2.37-4.13s-2.69-1.38-4.57-1.38c-2.15,0-4.08,.71-5.78,2.13s-2.82,3.18-3.36,5.28c-.34,1.37-.51,3.88-.51,7.52v10.13h-3.55V22.84Z"/>
          <path class="cls-2" d="M60.41,22.84h3.78l9.27,20.14,9.16-20.14h3.81l-12.64,27.62h-.66l-12.72-27.62Z"/>
          <path class="cls-2" d="M115.11,41.3l3,1.57c-.98,1.93-2.12,3.49-3.41,4.67-1.29,1.18-2.74,2.09-4.35,2.7-1.61,.62-3.43,.93-5.46,.93-4.51,0-8.03-1.48-10.57-4.43-2.54-2.95-3.81-6.29-3.81-10.02,0-3.5,1.08-6.63,3.23-9.37,2.73-3.49,6.38-5.23,10.95-5.23s8.47,1.79,11.28,5.36c2,2.52,3.02,5.67,3.05,9.45h-24.86c.07,3.21,1.09,5.84,3.08,7.89,1.98,2.05,4.43,3.08,7.35,3.08,1.41,0,2.77-.24,4.11-.73,1.33-.49,2.46-1.14,3.39-1.95,.93-.81,1.94-2.12,3.03-3.92Zm0-7.44c-.47-1.9-1.17-3.41-2.07-4.54s-2.11-2.05-3.6-2.74c-1.49-.69-3.06-1.04-4.7-1.04-2.71,0-5.04,.87-6.99,2.62-1.42,1.27-2.5,3.17-3.23,5.71h20.59Z"/>
          <path class="cls-2" d="M125.64,22.84h3.55v4.95c1.42-1.9,3-3.31,4.72-4.25s3.61-1.41,5.64-1.41,3.9,.52,5.5,1.57,2.78,2.46,3.54,4.24,1.14,4.54,1.14,8.3v14.22h-3.55v-13.18c0-3.18-.13-5.31-.4-6.37-.41-1.83-1.2-3.2-2.37-4.13s-2.69-1.38-4.57-1.38c-2.15,0-4.08,.71-5.78,2.13s-2.82,3.18-3.36,5.28c-.34,1.37-.51,3.88-.51,7.52v10.13h-3.55V22.84Z"/>
          <path class="cls-2" d="M160.45,12.58h3.55v10.26h5.64v3.07h-5.64v24.55h-3.55V25.91h-4.85v-3.07h4.85V12.58Z"/>
          <path class="cls-2" d="M202.5,22.84v27.62h-3.5v-4.75c-1.49,1.81-3.16,3.17-5.01,4.09s-3.88,1.37-6.08,1.37c-3.91,0-7.25-1.42-10.02-4.25s-4.15-6.28-4.15-10.35,1.4-7.38,4.19-10.21,6.15-4.24,10.08-4.24c2.27,0,4.32,.48,6.16,1.45s3.45,2.41,4.84,4.34v-5.08h3.5Zm-14.21,2.72c-1.98,0-3.8,.49-5.48,1.46-1.67,.97-3.01,2.34-4,4.1-.99,1.76-1.48,3.62-1.48,5.58s.5,3.8,1.5,5.58c1,1.78,2.34,3.16,4.02,4.15,1.68,.99,3.49,1.48,5.42,1.48s3.79-.49,5.53-1.47c1.74-.98,3.08-2.31,4.02-3.98,.94-1.67,1.41-3.56,1.41-5.66,0-3.2-1.05-5.87-3.16-8.01-2.11-2.15-4.7-3.22-7.77-3.22Z"/>
          <path class="cls-2" d="M209.15,22.84h3.63v4.04c1.08-1.59,2.23-2.78,3.43-3.57s2.45-1.18,3.76-1.18c.98,0,2.03,.31,3.15,.94l-1.85,3c-.75-.32-1.37-.48-1.88-.48-1.18,0-2.33,.49-3.43,1.46s-1.94,2.48-2.51,4.53c-.44,1.57-.66,4.76-.66,9.55v9.34h-3.63V22.84Z"/>
          <path class="cls-2" d="M227.37,11.47c.81,0,1.5,.29,2.07,.86,.57,.58,.86,1.27,.86,2.08s-.29,1.48-.86,2.06c-.57,.58-1.26,.86-2.07,.86s-1.47-.29-2.05-.86-.86-1.26-.86-2.06,.29-1.51,.86-2.08,1.26-.86,2.05-.86Zm-1.76,11.38h3.55v27.62h-3.55V22.84Z"/>
          <path class="cls-2" d="M249.62,22.13c4.26,0,7.78,1.54,10.58,4.62,2.54,2.81,3.82,6.14,3.82,9.98s-1.34,7.23-4.03,10.12c-2.69,2.89-6.14,4.33-10.37,4.33s-7.7-1.44-10.39-4.33-4.03-6.26-4.03-10.12,1.27-7.14,3.82-9.95c2.8-3.1,6.33-4.65,10.61-4.65Zm-.01,3.48c-2.96,0-5.5,1.09-7.62,3.28-2.12,2.18-3.18,4.82-3.18,7.92,0,2,.48,3.86,1.45,5.59,.97,1.73,2.28,3.06,3.92,4,1.65,.94,3.46,1.41,5.43,1.41s3.78-.47,5.43-1.41c1.65-.94,2.96-2.27,3.92-4,.97-1.73,1.45-3.59,1.45-5.59,0-3.1-1.07-5.74-3.2-7.92s-4.67-3.28-7.61-3.28Z"/>
          <path class="cls-2" d="M284.49,25.86l-2.29,2.36c-1.9-1.84-3.76-2.77-5.58-2.77-1.15,0-2.14,.38-2.97,1.14s-1.23,1.65-1.23,2.67c0,.9,.34,1.75,1.02,2.56,.68,.83,2.1,1.8,4.27,2.92,2.65,1.37,4.44,2.69,5.39,3.96,.93,1.29,1.4,2.73,1.4,4.34,0,2.27-.8,4.19-2.39,5.76s-3.59,2.36-5.98,2.36c-1.59,0-3.12-.35-4.56-1.04-1.45-.69-2.65-1.65-3.6-2.87l2.23-2.54c1.82,2.05,3.74,3.07,5.78,3.07,1.42,0,2.64-.46,3.64-1.37s1.5-1.99,1.5-3.22c0-1.02-.33-1.92-.99-2.72-.66-.78-2.15-1.76-4.48-2.95-2.49-1.29-4.19-2.56-5.09-3.81-.9-1.25-1.35-2.68-1.35-4.29,0-2.1,.72-3.84,2.15-5.23,1.43-1.39,3.24-2.08,5.43-2.08,2.54,0,5.1,1.24,7.68,3.73Z"/>
        </g>
        <g>
          <path class="cls-1" d="M12.69,16.01c0-.96-3.54,1.13-3.54,1.13,0,0-7.05,20.3-9.13,25.85-.33,.88,2.23,3.64,2.63,2.8,2.76-5.77,5.76-18.41,5.76-18.41,0,0-1.22,18.52-1.16,24.7,.02,2.18,.54,7.86,6.1,6.24,0,0,4.05-1.28,6.45-4.67,2.3-3.25,4.44-6.08,6.66-14.15,.22-.81-2.99-.69-3.38,.06-.53,1.04-4.15,8.81-7.06,11.63-1.98,1.91-3.93,5.11-3.34-10.48,.23-6.16,0-24.67,0-24.67"/>
          <path class="cls-1" d="M16.07,4.43c.74,3.09-1.18,6.2-4.27,6.93-3.09,.74-6.2-1.18-6.93-4.27C4.13,4,6.04,.89,9.14,.16c3.09-.74,6.2,1.18,6.93,4.27"/>
        </g>
      </g>
    </g>
  </g>
</svg>