<?xml version="1.0" encoding="UTF-8"?>
<svg id="Capa_2" data-name="Capa 2" xmlns="http://www.w3.org/2000/svg" viewBox="0 0 156.84 156.72">
  <g id="Capa_1-2" data-name="Capa 1">
    <g>
      <path d="M78.4,156.72C35.24,157.19-.02,121.03,0,78.39,.02,35.71,35.35,.02,78.45,0c42.89-.02,78.58,35.7,78.39,78.72-.18,42.63-35.48,78.51-78.44,78ZM11.69,78.34c.69,36.83,28.61,66.41,66.52,66.63,36.9,.22,66.86-28.72,66.77-66.77-.09-36.77-28.61-66.18-66.35-66.35-37.15-.16-66.11,28.76-66.94,66.49Z"/>
      <path d="M56.3,78.44c0,6.42-4.84,11.3-11.23,11.33-6.57,.03-11.47-4.83-11.47-11.37,0-6.42,4.84-11.3,11.23-11.33,6.58-.03,11.47,4.82,11.47,11.37Z"/>
      <path d="M89.77,78.43c0,6.42-4.84,11.3-11.23,11.34-6.57,.04-11.48-4.82-11.47-11.37,0-6.42,4.84-11.3,11.23-11.34,6.58-.03,11.48,4.82,11.48,11.37Z"/>
      <path d="M123.24,78.38c.01,6.43-4.8,11.34-11.17,11.39-6.59,.05-11.52-4.78-11.53-11.31-.01-6.44,4.8-11.34,11.17-11.39,6.59-.05,11.52,4.78,11.53,11.31Z"/>
    </g>
  </g>
</svg>