<?xml version="1.0" encoding="UTF-8"?>
<svg id="Capa_2" data-name="Capa 2" xmlns="http://www.w3.org/2000/svg" viewBox="0 0 156.84 156.8">
  <g id="Capa_1-2" data-name="Capa 1">
    <g>
      <path d="M.04,86.92c0-11.81,.06-23.63-.04-35.44-.03-3.34,1.39-5.37,4.36-6.71,19.74-8.92,39.46-17.87,59.17-26.87,2.57-1.18,4.93-1.23,7.47,.03,2.83,1.41,5.78,2.56,8.62,3.95,1.59,.78,2.43,.47,3.3-1.11,5.66-10.38,14.34-16.83,25.79-19.7,19.98-5,41.64,7.94,46.8,28.01,4.62,17.95-2.85,35.65-18.99,44.75-1.63,.92-2.12,2-2.11,3.78,.06,14.7-.04,29.39,.08,44.09,.03,3.74-1.37,6.05-4.8,7.59-19.59,8.8-39.14,17.69-58.67,26.61-2.57,1.17-4.89,1.21-7.47,.03-19.7-9-39.43-17.95-59.17-26.87C1.4,127.72-.03,125.7,0,122.36c.09-11.81,.04-23.62,.04-35.44Zm61.41,25.27c0-9.02-.02-18.03,.02-27.05,0-1.57-.14-2.82-1.87-3.6-15.25-6.87-30.47-13.79-45.67-20.76-1.94-.89-2.34-.39-2.34,1.59,.05,18.22,.04,36.44,0,54.66,0,1.6,.51,2.55,2.01,3.23,15.15,6.85,30.29,13.73,45.41,20.66,2.03,.93,2.5,.45,2.48-1.68-.08-9.02-.04-18.03-.04-27.05Zm11.57-.12c0,9.02,.07,18.05-.05,27.07-.03,2.4,.58,2.68,2.65,1.73,14.87-6.83,29.76-13.63,44.68-20.34,1.9-.86,2.6-1.92,2.59-3.99-.09-11.54-.11-23.07,.01-34.61,.03-2.6-.75-3.43-3.34-3.24-8.03,.59-15.52-1.29-22.38-5.5-1.29-.79-2.34-.7-3.63-.11-5.99,2.78-11.97,5.57-18.04,8.18-1.95,.84-2.57,1.97-2.55,4.02,.09,8.93,.04,17.86,.04,26.79Zm44.35-44.91c15.12-.51,27.48-11.37,27.65-27.51,.16-15.17-11.24-27.53-27.29-27.73-15.38-.19-27.75,11.47-27.8,27.51-.05,15.45,11.64,27.02,27.44,27.73Zm-39.19-27.78c1.91-4.56-1.58-6.35-5.67-7.77-.96-.33-1.88-.8-2.78-1.29-1.7-.93-3.3-.77-5.04,.03-13.76,6.31-27.55,12.56-41.32,18.84-.72,.33-1.88,.37-1.96,1.33-.09,1.23,1.24,1.21,2,1.57,13.76,6.3,27.55,12.54,41.31,18.86,1.75,.8,3.31,.82,5.04,0,4.61-2.19,9.23-4.38,13.94-6.35,2.09-.87,2.14-1.64,.96-3.42-4.19-6.34-6.55-13.29-6.5-21.79Z"/>
      <path d="M94.96,39.59c-.05-3.47,2.11-5.78,5.66-5.88,2.97-.09,5.95-.07,8.93-.02,1.55,.03,2.18-.61,2.15-2.15-.05-2.88-.05-5.77,0-8.65,.08-3.64,2.23-5.88,5.61-5.94,3.53-.06,5.82,2.18,5.92,5.94,.07,2.88,.07,5.77,.01,8.65-.03,1.55,.6,2.18,2.15,2.16,2.88-.05,5.77-.05,8.65,0,3.68,.08,5.98,2.4,5.94,5.92-.04,3.35-2.31,5.54-5.94,5.62-2.88,.06-5.77,.06-8.65,0-1.55-.03-2.18,.61-2.15,2.16,.05,2.88,.05,5.77,0,8.65-.08,3.63-2.27,5.9-5.62,5.94-3.52,.04-5.84-2.26-5.92-5.94-.06-2.88-.06-5.77,0-8.65,.03-1.55-.61-2.18-2.16-2.15-2.97,.05-5.95,.08-8.93-.02-3.44-.12-5.61-2.36-5.66-5.63Z"/>
    </g>
  </g>
</svg>