<?xml version="1.0" encoding="UTF-8"?>
<svg id="Capa_2" data-name="Capa 2" xmlns="http://www.w3.org/2000/svg" viewBox="0 0 156.84 156.82">
  <defs>
    <style>
      .cls-1 {
        fill: #fff;
      }
    </style>
  </defs>
  <g id="Capa_1-2" data-name="Capa 1">
    <g>
      <path class="cls-1" d="M16.53,122.94c.07-2.77,.98-5.12,2.69-7.11,2.06-2.39,2.23-4.82,.72-7.57-1.75-3.18-3.05-6.57-4.18-10.03-.87-2.68-2.58-4.13-5.55-4.41-6.07-.57-9.95-4.88-10.13-10.98-.09-3.04-.11-6.08,.01-9.12,.24-5.92,4.18-10.23,10.07-10.71,2.99-.24,4.71-1.64,5.58-4.33,1.18-3.65,2.62-7.18,4.41-10.57,1.31-2.46,.95-4.61-.69-6.82-4.28-5.78-3.88-10.59,1.16-15.69,2-2.02,3.97-4.07,6.05-6.01,4.02-3.76,9.34-4.24,13.66-.81,3.06,2.43,5.81,2.69,9.12,.74,2.79-1.64,5.87-2.71,8.95-3.69,2.8-.9,4.33-2.61,4.61-5.71,.53-5.9,4.83-9.81,10.74-10.04,3.03-.12,6.08-.1,9.12,0,6.09,.18,10.4,4.09,10.95,10.14,.27,2.97,1.73,4.67,4.42,5.54,3.64,1.18,7.19,2.61,10.57,4.4,2.37,1.25,4.43,.95,6.56-.59,6.18-4.47,10.72-4.06,16.13,1.32,1.88,1.87,3.78,3.71,5.6,5.63,3.9,4.13,4.39,9.46,.89,13.89-2.34,2.96-2.57,5.59-.8,8.87,1.53,2.83,2.65,5.9,3.72,8.94,1.02,2.89,2.65,4.51,5.89,4.8,5.75,.51,9.67,4.76,9.93,10.53,.15,3.23,.15,6.47,0,9.7-.27,5.88-4.33,10.12-10.2,10.59-2.85,.22-4.55,1.62-5.39,4.19-1.23,3.73-2.68,7.37-4.5,10.85-1.25,2.39-.88,4.44,.66,6.55,4.38,6.01,3.99,10.7-1.21,15.91-1.94,1.95-3.84,3.92-5.84,5.8-4.13,3.88-9.47,4.34-13.9,.8-2.98-2.37-5.66-2.54-8.86-.7-2.89,1.66-6.05,2.77-9.23,3.8-2.66,.87-4.19,2.47-4.44,5.5-.51,6.08-4.83,10.01-10.9,10.2-2.94,.09-5.88,.08-8.82,0-6.24-.16-10.57-4.09-11.11-10.3-.23-2.73-1.51-4.4-3.96-5.23-3.91-1.32-7.72-2.85-11.39-4.74-2.17-1.12-4.1-.7-6.04,.67-6.55,4.62-10.83,4.21-16.56-1.51-1.87-1.87-3.76-3.73-5.59-5.64-1.91-2-2.8-4.44-2.92-7.07Zm61.91,27.81s0,0,0-.01c1.37,0,2.75,.05,4.12,0,3.44-.14,5.36-1.77,5.59-5.17,.38-5.45,3.41-8.56,8.37-10.12,3.1-.97,6.08-2.22,8.95-3.71,4.93-2.55,9.52-2.46,13.93,1.22,2.35,1.96,4.9,1.79,7.17-.31,1.94-1.8,3.79-3.69,5.63-5.6,2.66-2.76,2.8-5.07,.43-8.06-3.14-3.96-3.46-8.15-1.27-12.64,1.63-3.35,3.08-6.77,4.25-10.32,1.56-4.72,4.72-7.5,9.88-7.87,3.42-.24,5.1-2.13,5.21-5.55,.09-2.74,.08-5.49,0-8.24-.1-3.61-1.74-5.43-5.34-5.73-5.14-.43-8.25-3.29-9.81-7.99-1.08-3.27-2.36-6.44-3.92-9.5-2.47-4.84-2.32-9.36,1.26-13.67,2.05-2.47,1.85-4.99-.4-7.39-1.81-1.93-3.69-3.8-5.61-5.62-2.62-2.5-4.97-2.61-7.84-.33-3.95,3.15-8.14,3.52-12.64,1.35-3.35-1.62-6.77-3.08-10.32-4.25-4.7-1.56-7.52-4.71-7.93-9.86-.28-3.45-2.11-5.15-5.5-5.26-2.84-.09-5.69-.09-8.53,0-3.4,.11-5.2,1.8-5.49,5.28-.44,5.27-3.39,8.4-8.22,9.95-3,.96-5.92,2.1-8.69,3.56-5.1,2.7-9.85,2.77-14.45-1.14-2.13-1.81-4.61-1.73-6.7,.15-2.33,2.1-4.55,4.33-6.63,6.68-1.96,2.21-1.96,4.58-.01,6.93,3.49,4.21,3.73,8.66,1.34,13.41-1.45,2.89-2.83,5.83-3.76,8.93-1.56,5.22-4.67,8.43-10.38,8.82-3.24,.22-4.91,2.15-5.02,5.41-.1,2.74-.08,5.49-.02,8.24,.09,3.78,1.71,5.52,5.52,5.87,4.86,.45,7.95,3.13,9.49,7.59,1.22,3.53,2.62,6.97,4.26,10.31,2.3,4.66,2,9.03-1.39,13.15-2.15,2.62-1.95,5.09,.44,7.61,1.75,1.85,3.56,3.65,5.41,5.41,2.72,2.6,5.06,2.71,8.07,.32,3.67-2.92,7.64-3.39,11.85-1.51,3.85,1.72,7.69,3.41,11.69,4.79,4.02,1.39,6.53,4.28,7.11,8.57,.68,5.04,1.94,6.25,6.95,6.3,.98,0,1.96,0,2.94,0Z"/>
      <path class="cls-1" d="M78.37,123.31c-24.69-.02-44.88-20.28-44.86-45,.02-24.65,20.34-44.85,45.07-44.79,24.62,.06,44.76,20.39,44.72,45.15-.04,24.46-20.38,44.66-44.93,44.63Zm11.37-18.66c0,2.65-.01,5.3,0,7.94,.02,3.16,.08,3.19,3.11,2.03,13.35-5.11,26.11-20.05,24.34-40.02-1.77-19.84-20.15-37.34-43.08-34.93-20.18,2.12-37.5,21.09-34.28,43.81,2.11,14.93,10.47,25.21,24.24,31.2,2.08,.9,3.16,.95,3.06-1.91-.19-5.39-.12-10.79-.02-16.18,.03-1.88-.62-3.06-2.18-4.1-4.93-3.29-8.03-7.91-9.59-13.64-2.64-9.74,1.98-21.13,10.71-26.2,3.32-1.93,5.43-.88,5.49,2.79,.06,3.33,.25,6.69-.05,10-.32,3.52,.66,6.07,3.9,7.67,1.34,.66,2.53,2.51,4.13,1.19,2.2-1.8,5.85-2.34,5.76-6.32-.09-3.92-.04-7.84,0-11.77,.01-1.53-.34-3.29,1.44-4.15,1.74-.84,3.22,.04,4.65,.97,12.78,8.3,14.89,26.66,3.47,36.76-4.37,3.86-5.72,7.6-5.1,12.8,.08,.68,.01,1.37,.01,2.06Zm-23.87-43.67c-1.49,.31-1.86,1.3-2.38,2.07-5.84,8.59-3.02,20.42,6.29,25.59,2.53,1.4,3.43,3.15,3.39,5.87-.09,5.88-.03,11.75-.03,17.63,0,5.01,.74,5.71,5.75,5.41,.58-.03,1.16-.25,1.74-.24,2.44,.04,3.12-1.21,3.07-3.51-.12-6.27,.07-12.54-.08-18.8-.07-3.08,.9-5.02,3.74-6.56,10.27-5.59,10.89-19.06,5.53-25.99-.43-.56-.69-1.47-1.97-1.29,0,3.21-.03,6.42,.01,9.63,.02,1.71-.57,3.02-1.97,4.02-2.71,1.93-5.42,3.87-8.09,5.87-1.76,1.31-3.38,1.22-5.09-.09-2.1-1.6-4.17-3.29-6.44-4.63-2.81-1.66-3.8-3.92-3.54-7.09,.21-2.58,.04-5.2,.04-7.9Z"/>
    </g>
  </g>
</svg>