<?xml version="1.0" encoding="UTF-8"?>
<svg id="Capa_2" data-name="Capa 2" xmlns="http://www.w3.org/2000/svg" viewBox="0 0 156.84 156.83">
  <g id="Capa_1-2" data-name="Capa 1">
    <g>
      <path d="M78.67,.01c15.64,0,31.28-.03,46.93,0,17.44,.04,31.19,13.74,31.21,31.16,.04,31.53,.04,63.06,0,94.58-.03,17.26-13.81,31.01-31.1,31.03-31.53,.04-63.06,.04-94.58,0C13.85,156.78,.06,143.01,.03,125.76,0,94.15-.01,62.54,.04,30.93,.06,13.84,13.89,.08,31.01,.02c15.89-.05,31.77-.01,47.66-.01ZM12.6,78.3c0,15.31-.03,30.62,0,45.94,.03,11.66,7.92,19.91,19.52,19.96,30.87,.12,61.74,.12,92.61,0,11.42-.05,19.42-8.06,19.46-19.49,.12-30.87,.12-61.74,0-92.61-.05-11.52-8.25-19.47-19.73-19.49-30.71-.05-61.41-.02-92.12,0-3.04,0-6.01,.53-8.77,1.86-7.46,3.62-10.9,9.82-10.95,17.89-.11,15.31-.03,30.62-.03,45.94Z"/>
      <path d="M53.52,71.95h3.18c19.47,0,38.93,0,58.4,0,.9,0,1.8-.03,2.69,.03,3.53,.27,6.17,2.98,6.21,6.35,.04,3.46-2.66,6.26-6.31,6.51-.81,.05-1.63,.03-2.44,.03-19.55,0-39.1,0-58.65,0-.95,0-1.9,0-2.91,0,.07,1.32,.96,1.74,1.55,2.34,5.16,5.21,10.42,10.31,15.51,15.59,3.86,4.01,2.2,9.85-3,11.09-2.19,.52-4.1-.16-5.61-1.65-8.79-8.72-17.62-17.4-26.23-26.29-4.34-4.48-4.28-10.71,.08-15.19,8.57-8.82,17.31-17.47,26.07-26.11,2.72-2.68,6.41-2.54,8.97,.03,2.48,2.49,2.51,6.47-.17,9.23-5.05,5.2-10.23,10.27-15.34,15.42-.67,.68-1.53,1.22-1.99,2.62Z"/>
    </g>
  </g>
</svg>