<?xml version="1.0" encoding="UTF-8"?>
<svg id="Capa_2" data-name="Capa 2" xmlns="http://www.w3.org/2000/svg" viewBox="0 0 155.83 155.83">
  <defs>
    <style>
      .cls-1 {
        fill: #fff;
      }
    </style>
  </defs>
  <g id="Capa_1-2" data-name="Capa 1">
    <g>
      <path class="cls-1" d="M77.83,155.83C34.91,155.81-.03,120.74,0,77.71,.03,34.85,35.17-.06,78.22,0c42.84,.06,77.67,35.22,77.6,78.33-.07,42.6-35.21,77.51-78,77.5ZM11.44,77.65c-.06,36.72,29.53,66.62,66.05,66.73,36.84,.12,66.81-29.49,66.9-66.1,.09-36.85-29.51-66.76-66.16-66.84-36.83-.08-66.73,29.56-66.79,66.21Z"/>
      <path class="cls-1" d="M83.47,60.68c0,5.32,.08,10.64-.04,15.96-.05,1.9,.62,3,2.22,3.95,6.7,3.97,13.34,8.05,20,12.1,1.15,.7,2.31,1.41,3.03,2.61,1.36,2.26,1.11,4.97-.65,6.86-1.85,1.99-4.38,2.45-6.97,1.04-2.5-1.36-4.9-2.9-7.33-4.38-5.76-3.51-11.46-7.11-17.27-10.52-2.87-1.68-4.22-3.82-4.18-7.27,.16-12.21,.05-24.43,.07-36.65,0-2.76,1.29-4.67,3.5-5.47,2.39-.85,4.95-.14,6.5,1.78,.9,1.12,1.12,2.41,1.12,3.79-.01,5.4,0,10.79,0,16.19Z"/>
    </g>
  </g>
</svg>