<?xml version="1.0" encoding="UTF-8"?>
<svg id="Capa_2" data-name="Capa 2" xmlns="http://www.w3.org/2000/svg" viewBox="0 0 157.12 157.11">
  <g id="Capa_1-2" data-name="Capa 1">
    <g>
      <path d="M70.91,40.87c0,7.83,.01,15.66,0,23.49,0,4.75-1.75,6.54-6.39,6.54-15.58,.01-31.15,.03-46.73,0C7.57,70.87,.07,63.31,.04,53.04,0,41.29,0,29.54,.04,17.8,.08,7.57,7.62,.07,17.9,.04,29.65,0,41.4,0,53.14,.04c10.24,.03,17.72,7.57,17.76,17.86,.03,7.66,0,15.31,0,22.97Zm-32.85,19.21c6.35,0,12.7-.08,19.04,.04,2.21,.04,3.05-.51,3.03-2.89-.11-12.61-.03-25.22-.06-37.83-.01-5.8-2.7-8.53-8.44-8.54-10.78-.03-21.57-.03-32.35,0-5.63,.02-8.4,2.73-8.42,8.29-.04,10.87-.04,21.74,0,32.61,.02,5.57,2.78,8.28,8.41,8.31,6.26,.03,12.52,0,18.78,0Z"/>
      <path d="M40.75,86.2c7.92,0,15.84-.02,23.75,0,4.55,.01,6.4,1.82,6.4,6.28,.01,15.75,.04,31.5-.01,47.24-.04,9.59-7.68,17.28-17.23,17.33-12.18,.07-24.36,.07-36.54,0-9.25-.06-17-7.75-17.06-16.95-.08-12.27-.08-24.54,0-36.8,.06-9.36,7.79-17.01,17.21-17.08,7.83-.06,15.66-.01,23.49-.02Zm19.33,33.09c0-6.35-.1-12.7,.05-19.04,.06-2.45-.6-3.31-3.18-3.28-12.43,.13-24.87,.05-37.31,.06-6.13,0-8.78,2.63-8.79,8.72-.02,10.61-.02,21.22,0,31.83,.01,5.98,2.66,8.66,8.57,8.67,10.7,.02,21.39,.02,32.09,0,5.9-.01,8.54-2.71,8.56-8.69,.02-6.09,0-12.18,0-18.26Z"/>
      <path d="M116.43,70.91c-8,0-16.01,.02-24.01,0-4.32-.01-6.2-1.88-6.2-6.22-.02-15.83-.05-31.67,.02-47.5C86.27,7.8,93.99,.1,103.38,.05c12.18-.07,24.36-.07,36.54,0,9.39,.05,17.08,7.75,17.14,17.15,.07,12.18,.07,24.36,0,36.54-.05,9.39-7.75,17.07-17.15,17.15-7.83,.07-15.66,.01-23.49,.02Zm2.63-10.82c6.26,0,12.52,.03,18.78,0,5.62-.03,8.39-2.74,8.41-8.31,.04-10.87,.04-21.74,0-32.61-.02-5.46-2.77-8.27-8.16-8.29-10.96-.04-21.92-.04-32.87,0-5.4,.02-8.16,2.82-8.17,8.27-.03,12.7,.04,25.39-.06,38.09-.02,2.38,.82,2.94,3.03,2.9,6.35-.12,12.7-.04,19.04-.04Z"/>
      <path d="M86.2,116.41c0-7.92-.02-15.83,0-23.75,.01-4.63,1.84-6.45,6.52-6.45,15.57-.01,31.14-.04,46.72,0,10.06,.03,17.6,7.61,17.63,17.72,.04,11.83,.04,23.66,0,35.49-.04,10.06-7.61,17.61-17.71,17.64-11.83,.04-23.66,.04-35.49,0-10.07-.04-17.61-7.61-17.66-17.7-.04-7.66,0-15.31,0-22.97Zm32.86-19.38c-6.35,0-12.7,.08-19.04-.04-2.19-.04-3.07,.49-3.05,2.88,.11,12.7,.03,25.39,.06,38.09,.01,5.46,2.77,8.26,8.16,8.29,10.96,.05,21.92,.04,32.87,0,5.4-.02,8.15-2.83,8.17-8.28,.04-10.87,.04-21.74,0-32.61-.02-5.57-2.78-8.29-8.4-8.32-6.26-.03-12.52,0-18.78,0Z"/>
    </g>
  </g>
</svg>